# xmcd CD database file
#
# Track frame offsets:
#	150
#	19400
#	41590
#	61945
#	82385
#	103395
#	126340
#	144215
#	165560
#	181680
#	201472
#	224025
#	241785
#	261030
#	280495
#
# Disc length: 4013 seconds
#
# Revision: 15
# Processed by: cddbd v1.5PL3 Copyright (c) Steve Scherf et al.
# Submitted via: CDex 1.51
#
DISCID=e80fab0f
DTITLE=松任谷由実 - neue musik  Disc1
DYEAR=1998
DGENRE=Japanese Pop
TTITLE0=守ってあげたい
TTITLE1=恋人はサンタクロース
TTITLE2=BLIZZARD
TTITLE3=サーフ天国、スキー天国
TTITLE4=ダイアモンドダストが消えぬまに
TTITLE5=きみなき世界
TTITLE6=SWEET DREAMS
TTITLE7=ノーサイド
TTITLE8=時をかける少女
TTITLE9=ダンデライオン〜遅咲きのたんぽぽ
TTITLE10=Valentine's RADIO
TTITLE11=青春のリグレット
TTITLE12=Hello, my friend
TTITLE13=DESTINY
TTITLE14=埠頭を渡る風
EXTD=YEAR: 1998
EXTT0=
EXTT1=
EXTT2=
EXTT3=
EXTT4=
EXTT5=
EXTT6=
EXTT7=
EXTT8=
EXTT9=
EXTT10=
EXTT11=
EXTT12=
EXTT13=
EXTT14=
PLAYORDER=
